<svg xmlns="http://www.w3.org/2000/svg" viewBox="0 0 48 48" id="organic-waste"><polygon fill="#cedada" points="39 10 39 11 38.56 15 35 47 11 47 10.88 44.84 9 11 9 10 39 10"></polygon><path fill="#b8cfcd" d="M39,10v1l-.44,4L35,47H11l-.12-2.16,8.32-.69A16,16,0,0,0,33.84,29.17h0a14.4,14.4,0,0,0-13.3-15.233L9.12,13.08,9,11V10Z"></path><circle cx="35.734" cy="14.151" r="1.266" fill="#cedada"></circle><circle cx="36.009" cy="17.367" r=".633" fill="#cedada"></circle><circle cx="19.266" cy="41.503" r="1.266" fill="#ebf0f0"></circle><circle cx="21.897" cy="39.633" r=".633" fill="#ebf0f0"></circle><circle cx="19.24" cy="16.76" r=".76" fill="#ebf0f0"></circle><circle cx="17.661" cy="17.882" r=".38" fill="#ebf0f0"></circle><circle cx="27.253" cy="13.24" r=".76" fill="#cedada"></circle><circle cx="25.38" cy="12.749" r=".38" fill="#cedada"></circle><circle cx="11.576" cy="30.424" r=".576" fill="#ebf0f0"></circle><circle cx="13.036" cy="30.277" r=".288" fill="#ebf0f0"></circle><circle cx="31.952" cy="32.509" r=".576" fill="#ebf0f0"></circle><circle cx="31.65" cy="33.945" r=".288" fill="#ebf0f0"></circle><circle cx="33.252" cy="39.424" r=".576" fill="#cedada"></circle><circle cx="34.712" cy="39.277" r=".288" fill="#cedada"></circle><circle cx="14.748" cy="45.576" r=".576" fill="#cedada"></circle><circle cx="13.288" cy="45.723" r=".288" fill="#cedada"></circle><path fill="#cedada" d="M29,45h4.5a.5.5,0,0,1,0,1H29a.5.5,0,0,1,0-1Z"></path><circle cx="27.5" cy="45.5" r=".5" fill="#cedada"></circle><path fill="#ebf0f0" d="M11,20.5v-6a.5.5,0,0,1,1,0v6a.5.5,0,0,1-1,0Z"></path><circle cx="11.5" cy="22.5" r=".5" fill="#ebf0f0"></circle><path fill="#cedada" d="M15,9V5a4,4,0,0,1,4-4H29a4,4,0,0,1,4,4V9Z"></path><path fill="#b8cfcd" d="M29,1H23c2.21,0,4,.79,4,3h0a2,2,0,0,1-2,2H15V9H33V5A4,4,0,0,0,29,1Z"></path><circle cx="17.959" cy="2.76" r=".76" fill="#ebf0f0"></circle><circle cx="16.38" cy="3.882" r=".38" fill="#ebf0f0"></circle><path fill="#cedada" d="M29.75,6h-1.5a.5.5,0,0,1,0-1h1.5a.5.5,0,0,1,0,1Z"></path><circle cx="31.75" cy="5.5" r=".5" fill="#cedada"></circle><rect width="34" height="4" x="7" y="7" fill="#839d9c"></rect><path fill="#516667" d="M41,7v4H7V10H31a9,9,0,0,0,5.4-1.8L38,7Z"></path><circle cx="38.576" cy="9.576" r=".576" fill="#839d9c"></circle><circle cx="40.015" cy="9.863" r=".288" fill="#839d9c"></circle><path fill="#b8cfcd" d="M14.5,9h-6a.5.5,0,0,1,0-1h6a.5.5,0,0,1,0,1Z"></path><circle cx="16.5" cy="8.5" r=".5" fill="#b8cfcd"></circle><path fill="#87a901" d="M15.69,36.194a11.906,11.906,0,0,1-.48-6.2,12.205,12.205,0,0,1,2.884-5.72c4.864-5.739,13.771-5.313,14.9-5.244a22.888,22.888,0,0,1-.659,5.953c-.763,3.089-2.044,8.275-6.551,10.731C21.62,37.986,17.044,36.647,15.69,36.194Z"></path><path fill="#66a100" d="M32.34,24.99c-.77,3.09-2.05,8.27-6.56,10.73-4.16,2.27-8.74.93-10.09.47a11.632,11.632,0,0,1-.63-2.88c1.68.52,5.88,1.51,9.72-.59,4.51-2.46,5.79-7.64,6.56-10.73A23.552,23.552,0,0,0,31.86,19c.56,0,.96.02,1.14.03A23.692,23.692,0,0,1,32.34,24.99Z"></path><circle cx="21.355" cy="24.122" r="1.266" fill="#accc5f"></circle><circle cx="23.986" cy="22.252" r=".633" fill="#accc5f"></circle><circle cx="24.959" cy="30.76" r=".76" fill="#accc5f"></circle><circle cx="23.38" cy="31.882" r=".38" fill="#accc5f"></circle><circle cx="18.576" cy="35.424" r=".576" fill="#87a901"></circle><circle cx="20.036" cy="35.277" r=".288" fill="#87a901"></circle><path fill="#384c40" d="M20.491,38.008a16.418,16.418,0,0,1-5.118-.865,1,1,0,0,1-.626-.617,12.879,12.879,0,0,1-.518-6.718,13.157,13.157,0,0,1,3.1-6.177c5.029-5.935,13.978-5.7,15.726-5.595a1,1,0,0,1,.938.978,23.925,23.925,0,0,1-.688,6.213c-.8,3.255-2.15,8.7-7.043,11.369A11.955,11.955,0,0,1,20.491,38.008ZM16.48,35.4c1.833.54,5.531,1.239,8.827-.556,4.12-2.244,5.334-7.156,6.058-10.091A21.866,21.866,0,0,0,31.994,20c-2.712-.039-9.306.4-13.138,4.924a11.3,11.3,0,0,0-2.665,5.264A10.874,10.874,0,0,0,16.48,35.4Z"></path><path fill="#384c40" d="M15,42c-.022,0-.044,0-.065,0A1,1,0,0,1,14,40.936a20.083,20.083,0,0,1,1.053-5.263c2.436-7.045,8.244-10.9,11.488-12.562a1,1,0,1,1,.914,1.778c-2.978,1.531-8.3,5.052-10.512,11.438A18.085,18.085,0,0,0,16,41.064,1,1,0,0,1,15,42Z"></path><path fill="#384c40" d="M35 48H11a1 1 0 0 1-1-.944l-2-36A1 1 0 0 1 9 10H39a1 1 0 0 1 .994 1.11l-4 36A1 1 0 0 1 35 48zM11.946 46H34.1l3.779-34H10.057zM33 8a1 1 0 0 1-1-1V5a3 3 0 0 0-3-3H19a3 3 0 0 0-3 3V7a1 1 0 0 1-2 0V5a5.006 5.006 0 0 1 5-5H29a5.006 5.006 0 0 1 5 5V7A1 1 0 0 1 33 8z"></path><path fill="#384c40" d="M41,12H7a1,1,0,0,1-1-1V7A1,1,0,0,1,7,6H41a1,1,0,0,1,1,1v4A1,1,0,0,1,41,12ZM8,10H40V8H8Z"></path></svg>